<svg width="1024" height="1024" viewBox="0 0 1024 1024" fill="none" xmlns="http://www.w3.org/2000/svg">
<path d="M355.47 355.217C361.443 355.217 366.12 359.918 366.12 365.917V582.186C366.119 588.053 361.574 592.886 355.47 592.886C349.496 592.886 344.822 588.055 344.822 582.186V365.917C344.822 359.918 349.498 355.217 355.47 355.217ZM433.462 380.578C439.434 380.578 444.11 385.279 444.11 391.278V556.824C444.11 562.821 439.563 567.524 433.462 567.524C427.36 567.524 422.812 562.821 422.812 556.824V391.278C422.812 385.281 427.36 380.578 433.462 380.578ZM316.412 398.802C322.509 398.802 327.188 403.501 327.188 409.502V538.601C327.188 544.602 322.509 549.301 316.412 549.301C310.435 549.301 305.891 544.595 305.89 538.601V409.502C305.89 403.507 310.435 398.802 316.412 398.802ZM394.529 414.859C400.506 414.859 405.051 419.564 405.051 425.56V522.543C405.051 528.408 400.507 533.243 394.529 533.243C388.426 533.243 383.881 528.41 383.88 522.543V425.56C383.88 419.692 388.426 414.86 394.529 414.859ZM472.393 436.524C478.495 436.525 483.042 441.228 483.042 447.225V500.878C483.041 506.875 478.494 511.578 472.393 511.578C466.421 511.578 461.744 506.877 461.744 500.878V447.225C461.744 441.227 466.292 436.524 472.393 436.524ZM277.48 446.465C283.457 446.465 288.13 451.298 288.13 457.293V490.81C288.13 496.807 283.582 501.51 277.48 501.51C271.379 501.51 266.832 496.807 266.832 490.81V457.293C266.832 451.3 271.375 446.465 277.48 446.465Z" fill="url(#paint0_linear_6_407)" fill-opacity="0.8" stroke="url(#paint1_linear_6_407)" stroke-width="0.5"/>
<defs>
<linearGradient id="paint0_linear_6_407" x1="264.819" y1="331.364" x2="594.994" y2="444.853" gradientUnits="userSpaceOnUse">
<stop stop-color="#FFFAFA"/>
<stop offset="1" stop-color="#FFFAFA" stop-opacity="0.4"/>
</linearGradient>
<linearGradient id="paint1_linear_6_407" x1="374.937" y1="592.635" x2="380.046" y2="355.577" gradientUnits="userSpaceOnUse">
<stop stop-color="white" stop-opacity="0.8"/>
<stop offset="1" stop-color="white" stop-opacity="0.2"/>
</linearGradient>
</defs>
</svg>
