<svg width="1024" height="1024" viewBox="0 0 1024 1024" fill="none" xmlns="http://www.w3.org/2000/svg">
<path d="M594.922 355.217C600.908 355.217 605.597 359.917 605.597 365.917V582.186C605.596 588.054 601.039 592.886 594.922 592.886C588.934 592.885 584.248 588.056 584.248 582.186V365.917C584.248 359.917 588.936 355.217 594.922 355.217ZM673.105 380.578C679.092 380.578 683.78 385.279 683.78 391.278V556.824C683.78 562.822 679.221 567.524 673.105 567.524C666.99 567.524 662.432 562.822 662.432 556.824V391.278C662.432 385.281 666.99 380.578 673.105 380.578ZM555.767 398.802C561.878 398.802 566.568 403.5 566.568 409.502V538.601C566.568 544.602 561.878 549.301 555.767 549.301C549.776 549.301 545.22 544.596 545.22 538.601V409.502C545.22 403.506 549.776 398.802 555.767 398.802ZM634.077 414.859C640.068 414.859 644.625 419.564 644.625 425.56V522.543C644.625 528.409 640.069 533.243 634.077 533.243C627.96 533.243 623.404 528.411 623.403 522.543V425.56C623.403 419.691 627.96 414.86 634.077 414.859ZM712.134 436.524C718.249 436.524 722.809 441.227 722.809 447.225V500.878C722.808 506.875 718.249 511.578 712.134 511.578C706.147 511.578 701.459 506.877 701.459 500.878V447.225C701.459 441.227 706.018 436.524 712.134 436.524ZM516.739 446.465C522.73 446.465 527.413 451.297 527.413 457.293V490.81C527.413 496.807 522.855 501.51 516.739 501.51C510.624 501.51 506.064 496.807 506.064 490.81V457.293C506.064 451.299 510.62 446.465 516.739 446.465Z" fill="url(#paint0_linear_6_416)" fill-opacity="0.8" stroke="url(#paint1_linear_6_416)" stroke-width="0.5"/>
<defs>
<linearGradient id="paint0_linear_6_416" x1="504.046" y1="331.364" x2="834.865" y2="445.355" gradientUnits="userSpaceOnUse">
<stop stop-color="#FFFAFA"/>
<stop offset="1" stop-color="#FFFAFA" stop-opacity="0.4"/>
</linearGradient>
<linearGradient id="paint1_linear_6_416" x1="614.436" y1="592.635" x2="619.534" y2="355.576" gradientUnits="userSpaceOnUse">
<stop stop-color="white" stop-opacity="0.8"/>
<stop offset="1" stop-color="white" stop-opacity="0.2"/>
</linearGradient>
</defs>
</svg>
