<svg width="1024" height="1024" viewBox="0 0 1024 1024" fill="none" xmlns="http://www.w3.org/2000/svg">
<path d="M592.988 556.016C578.573 543.79 569.408 531.972 565.847 521.257C564.068 515.903 563.69 510.83 564.749 506.116C565.795 501.459 568.249 497.139 572.169 493.236L798.389 634.877L798.39 634.877C802.773 637.584 806.163 638.53 809.745 638.038C813.304 637.548 817.021 635.639 822.057 632.731C849.912 616.649 884.793 625.996 900.736 653.61C916.678 681.222 907.145 716.053 879.409 732.067C851.914 747.941 816.982 738.782 801.04 711.169C794.441 699.739 792.979 691.821 792.421 685.473C791.863 679.138 792.211 674.25 789.194 669.025C787.869 666.73 786.48 665.329 783.368 663.282L782.723 662.863L782.721 662.862L765.238 651.989L765.239 651.988C759.778 648.494 755.838 646.413 752.31 645.455C748.77 644.493 745.66 644.666 741.869 645.645L731.41 648.322C723.387 650.321 716.592 650.741 710.068 649.206C703.542 647.672 697.264 644.177 690.284 638.309L690.284 638.311L592.988 556.016ZM823.298 698.319C831.964 713.329 851.296 718.3 866.42 709.569C881.663 700.768 887.024 681.54 878.358 666.53C869.554 651.28 850.222 646.307 834.977 655.109C819.852 663.841 814.494 683.07 823.298 698.319ZM689.328 425.592C694.79 424.079 699.861 424.047 704.497 425.413C709.187 426.796 713.448 429.612 717.227 433.8C724.791 442.182 730.413 456.043 733.648 474.803L733.649 474.804L753.055 591.473L751.775 592.212L694.179 555.96L689.328 425.592ZM704.538 626.816C707.656 632.217 714.954 634.378 720.718 631.05C726.364 627.791 728.138 620.389 725.021 614.991C721.697 609.233 714.47 607.187 708.823 610.447C703.058 613.776 701.213 621.057 704.538 626.816ZM664.413 790.051C648.471 762.438 657.936 727.486 685.671 711.474C691.068 708.357 694.611 705.996 696.742 702.954C698.749 700.089 699.487 696.649 699.416 691.489L699.39 690.434L698.253 658.107L698.969 657.694C708.797 662.521 717.709 662.978 730.263 659.726L730.621 660.347C730.659 661.504 730.66 662.8 730.662 664.235C730.664 665.329 730.667 666.504 730.685 667.757L730.71 669.036L730.71 669.037L731.434 692.471L731.433 692.475L731.471 693.192C731.681 696.673 732.266 698.687 733.654 701.091C736.74 706.435 741.098 708.565 746.251 712.188C751.413 715.818 757.475 721.001 764.109 732.491C780.052 760.104 770.517 794.935 743.023 810.809C715.287 826.823 680.355 817.663 664.413 790.051ZM686.791 777.131C695.457 792.14 714.549 797.251 730.033 788.311C745.036 779.649 750.517 760.353 741.851 745.342C733.046 730.093 713.595 725.189 698.591 733.852C683.105 742.792 677.988 761.883 686.791 777.131Z" fill="url(#paint0_linear_6_425)" stroke="url(#paint1_linear_6_425)" stroke-width="0.5"/>
<defs>
<linearGradient id="paint0_linear_6_425" x1="834.348" y1="683.243" x2="813.353" y2="334.516" gradientUnits="userSpaceOnUse">
<stop stop-color="#FF6161"/>
<stop offset="1" stop-color="#F52828"/>
</linearGradient>
<linearGradient id="paint1_linear_6_425" x1="604.701" y1="437.184" x2="810.951" y2="799.086" gradientUnits="userSpaceOnUse">
<stop stop-color="white" stop-opacity="0.8"/>
<stop offset="1" stop-color="white" stop-opacity="0.4"/>
</linearGradient>
</defs>
</svg>
